<?xml version="1.0" standalone="no"?>
<!DOCTYPE svg PUBLIC "-//W3C//DTD SVG 20010904//EN"
 "http://www.w3.org/TR/2001/REC-SVG-20010904/DTD/svg10.dtd">
<svg version="1.0" xmlns="http://www.w3.org/2000/svg"
 width="632.000000pt" height="632.000000pt" viewBox="0 0 632.000000 632.000000"
 preserveAspectRatio="xMidYMid meet">
<metadata>
Created by potrace 1.11, written by Peter Selinger 2001-2013
</metadata>
<g transform="translate(0.000000,632.000000) scale(0.100000,-0.100000)"
fill="#000000" stroke="none">
<path d="M2174 4535 c-322 -48 -577 -251 -696 -555 -14 -36 -29 -83 -33 -105
-4 -22 -9 -51 -12 -65 -3 -14 -6 -40 -7 -58 -2 -17 -6 -35 -9 -38 -3 -4 -2
-16 4 -27 9 -15 8 -18 -1 -12 -10 6 -11 1 -5 -21 4 -16 9 -47 11 -69 2 -22 6
-51 9 -65 3 -14 8 -41 11 -60 16 -97 99 -304 162 -405 51 -81 117 -180 130
-193 7 -8 25 -30 40 -50 118 -156 362 -384 607 -569 193 -144 657 -444 705
-455 13 -3 34 60 44 131 2 20 7 43 10 51 5 14 12 43 21 95 2 11 6 29 9 40 30
127 30 114 -11 158 -59 63 -74 79 -143 157 -36 40 -73 81 -83 90 -17 16 -15
20 32 86 28 38 54 74 58 79 14 16 118 159 127 173 8 14 11 10 -99 107 -44 39
-93 82 -110 97 -16 14 -40 36 -53 47 -27 23 -33 9 74 189 41 68 74 127 74 133
0 5 5 9 10 9 6 0 10 5 10 12 0 6 8 20 17 31 17 18 15 21 -43 75 -33 32 -93 86
-133 122 -40 36 -85 76 -99 89 l-26 24 45 86 c25 47 70 133 102 192 l56 105
-67 71 c-139 147 -324 259 -473 288 -111 22 -171 24 -265 10z"/>
<path d="M3980 4539 c-36 -5 -76 -11 -90 -14 -14 -3 -36 -8 -50 -11 -13 -3
-60 -21 -104 -40 -171 -75 -339 -216 -443 -372 -32 -48 -62 -92 -68 -98 -5 -6
-22 -31 -37 -55 -15 -24 -43 -67 -62 -95 l-34 -51 27 -29 c14 -16 64 -72 110
-124 46 -52 97 -110 112 -127 16 -18 29 -35 29 -39 0 -5 -88 -124 -251 -339
-5 -6 17 -38 53 -75 234 -251 212 -222 191 -247 -25 -28 -173 -190 -203 -222
-58 -60 -58 -61 3 -136 4 -5 48 -65 98 -133 l90 -122 -26 -83 c-15 -45 -28
-86 -30 -92 -1 -5 -5 -17 -8 -25 -3 -8 -19 -56 -36 -105 -16 -50 -33 -98 -37
-109 -6 -15 3 -13 52 14 51 29 124 71 199 118 11 6 33 19 50 28 16 9 35 23 43
30 7 8 20 14 28 14 8 0 14 4 14 10 0 5 14 17 31 25 45 24 281 192 374 266 200
162 389 340 496 469 30 36 59 69 65 75 18 16 94 133 94 144 0 6 4 11 9 11 5 0
38 60 74 133 68 137 135 332 138 402 1 22 5 44 7 49 8 15 8 146 0 146 -5 0 -8
5 -8 11 0 5 6 7 13 3 9 -6 9 -5 0 7 -7 8 -14 35 -17 59 -6 58 -54 221 -70 240
-8 8 -22 30 -32 49 -35 62 -41 71 -78 116 -21 25 -42 42 -47 39 -11 -7 -60 42
-57 57 4 18 -99 94 -187 138 -91 45 -201 78 -289 86 -33 3 -62 7 -65 8 -3 2
-35 0 -71 -4z"/>
</g>
</svg>
